/* XPM */
static char *fire[] = {
/* columns rows colors chars-per-pixel */
"200 40 8 1 ",
"  c #000000",
". c #FDF915",
": c #FFDAA0",
"+ c #F37231",
"* c #DE5316",
"- c #F6D66D",
"# c #6A5C43",
"= c #FFBD47",
/* pixels */
"                                                                                                                                                                                                        ",
"                                                                                                                                                                                                        ",
"                                                                                                                                                                                                        ",
"                                                                                                                                                                                                        ",
"                                                                                                                                                                                                        ",
"                ++++                                       *++                                    **                                   +        +*++                                                    ",
"                *++                                        ++=*                              +++++*      +                          ++*+         *+                               +*                    ",
"                                                           +++*++                              +*++      **                         ++*                                          ++*++      ++*         ",
"                                                           *++ ++   ++*                       *++      *++*                         +*+*                                        +++*        ***         ",
"                           +                               ++ ++   +*                        +++       +*                             ** *++        ++                     +++  *+++        +           ",
"                           +*++                      ++       *+++                           *=+       ++                                 ++++      *                      +**   *++*                   ",
"                       ++   +++                       ++       +++*                           **                                 +       +++=+      *+++                  ++++    +*++                  ",
"                        *    ++                       *++*     *++*                                                               +     ++==++       ++*                  +++                           ",
"                     +++*                              *+=    *+++                               **+         +                  **++   +*=++        ++++                  +                             ",
"               ++++  *++                              *++*                                      *+++        +                   *++*+  ++++++       +++                  +                              ",
"             +++*    ++++                             ++*  **                                 + *=+++      ++*                   *+++    +**++                                                          ",
"              +++*    +++                                  ++*                          ++++  *+*+=-++    ++++*                   *+=       +                                         ++                ",
"              +*+++++*                             ++    *+=-+                          +++  ++++*+=+*   ++++*                   *++*  **                                        *  ++*++               ",
"         ++       +=+=+                           +*+   +=--+*    ++                   *==*  *+-=+=++    *++*                    ++* **+      **                               *++   *=+*               ",
"         +++   +++--+=-=+                       **=--= +=--=*     *+*                  +=-=* +=---==++ +  *++*                     ++=-+ ++   ++*                         +++ *=++   +=+*               ",
"          +*=* +=-:=++=-+ ++                    **+-=++=:--=** +*+==*                  ++==++ +=-=++=+ ++* *++                     +=:=+==+  +=-+                         +++ *=-++  ++-+               ",
"          ++=+*=-::=---=++**                      *--++=----=++=++=-=*                 **+-=+++++=+-+=+--=++                       +--=+==+*+-=+*                        *+-++ ++-=+ *+=+               ",
"           *+-=--::-::==+=-+                      +-:-==+-:====++==+*                   **+=--==-==:+---=*+                        +=--+=--==:-=++++                     *=--=+++=--==-+* ++            ",
"           *+-=--::-::==+=-+                      +-:-==+-:====++==+*                   **+=--==-==:+---=*+                        +=--+=--==:-=++++                     *=--=+++=--==-+* ++            ",
"          +++=:---::::-=--+*                      *==-:-===:-=+===++                      *++=:-==..==-=+  **                     *++=--+-::==--=+=+                       +=--==-::---=+++=+           ",
"          +++=--:::::::---=+++                   +++==----::-----=++++                  +++====---:..-:-===+++                   ++-=+--:=-..-:-+=-+++                   ++++---::..:::=++==++          ",
"          +*+---::....:--:=+*                    +*--=--:.....:--=--*+                   **=:=-::......-=:=+*                     +-:-=::......--:-+*                    +*--=--:.....:-=:=+*           ",
"        +++++=-::.....:-:-=++++                 ++++=-:-:.....:::-=++++                 ++++-:-::......::-=++++                 +++=-:--:......::-=++++                 ++++=-:::......-:-=++++         ",
"         *++#++=--:::-:=++*++++                  *++#++---:::-:=++*++++                  *++#++---:::-:=++*++++                  *++*++---:::-:=++*++++                  **+#++=--:::-:=++*++++         ",
"        ***#*##+**-++=*#*+**                    ***#*##+**-++=*#*+**                    ***#*##+**-++=*#*+**                    ***#*##+**-++=*#*+**                    ***#*##+**-++=*#*+**            ",
"          *######*+#***##*##                      *######*+#***##*##                      *######*+#***##*##                      *######*+#***##*##                      *######*+#***##*##            ",
"            #####*+#***##*                          #####*+#***##*                          #####*+#***##*                          #####*+#***##*                          #####*+#***##*              ",
"              ******##+                               ******##+                               ******##+                               ******##+                               ******##+                 ",
"                                                                                                                                                                                                        ",
"                                                                                                                                                                                                        ",
"                                                                                                                                                                                                        ",
"                                                                                                                                                                                                        ",
"                                                                                                                                                                                                        ",
"                                                                                                                                                                                                        ",
"                                                                                                                                                                                                        ",
};


























