/* XPM */
static char *Red_Ghost_Down[] = {
/* columns rows colors chars-per-pixel */
"40 40 4 1 ",
"  c #AC3232",
". c #CBDBFC",
"X c #555555",
"o c None",
/* pixels */
"ooooooooooooooo          ooooooooooooooo",
"oooooooooooo                oooooooooooo",
"oooooooooo                    oooooooooo",
"ooooooooo                      ooooooooo",
"ooooooo                          ooooooo",
"oooooo                            oooooo",
"ooooo                              ooooo",
"oooo                                oooo",
"oooo                                oooo",
"ooo                                  ooo",
"oo                                    oo",
"oo                                    oo",
"o                                      o",
"o                                      o",
"o                                      o",
"                                        ",
"          ..XX            ..XX          ",
"         ..XXXX          ..XXXX         ",
"        ...XXXX.        ...XXXX.        ",
"        ....XX..        ....XX..        ",
"        ........        ........        ",
"        ........        ........        ",
"         ......          ......         ",
"          ....            ....          ",
"                                        ",
"                                        ",
"                                        ",
"                                        ",
"                                        ",
"                                        ",
"                                        ",
"                                        ",
"          ooo              ooo          ",
"         ooooo            ooooo         ",
"o       ooooooo          ooooooo       o",
"o       ooooooo          ooooooo       o",
"o      ooooooooo        ooooooooo      o",
"oo    ooooooooooo      ooooooooooo    oo",
"oo    ooooooooooo      ooooooooooo    oo",
"ooo  ooooooooooooo    ooooooooooooo  ooo"
};
