/* XPM */
static char *Red_Ghost_Down[] = {
/* columns rows colors chars-per-pixel */
"40 20 4 2 ",
"  c #AC3232",
". c #CBDBFC",
"X c #555555",
"o c None",
/* pixels */
"ooooooooooooooo          oooooooooooooooooooooooooooooo          ooooooooooooooo",
"oooooooooo                    oooooooooooooooooooo                    oooooooooo",
"ooooooo                          oooooooooooooo                          ooooooo",
"ooooo                              oooooooooo                              ooooo",
"oooo                                oooooooo                                oooo",
"oo                                    oooo                                    oo",
"o                                      oo                                      o",
"o                                      oo                                      o",
"          ..XX            ..XX                    ..XX            ..XX          ",
"        ...XXXX.        ...XXXX.                ...XXXX.        ...XXXX.        ",
"        ........        ........                ........        ........        ",
"         ......          ......                  ......          ......         ",
"                                                                                ",
"                                                                                ",
"                                                                                ",
"                                                                                ",
"          ooo              ooo                            oooo                  ",
"o       ooooooo          ooooooo       o       oo       oooooooo       oo       ",
"o      ooooooooo        ooooooooo      o     oooo      oooooooooo      oooo     ",
"oo    ooooooooooo      ooooooooooo    oo   oooooo    oooooooooooooo    oooooo   ",
};
