/* XPM */
static char *Red_Ghost_Down[] = {
/* columns rows colors chars-per-pixel */
"280 51 5 1 ",
"  c #FFFFFF",
". c #FBE101",
"# c #000000",
"- c #F28300",
"+ c #EE2000",
/* pixels */
"-----++++++++++++++++++++++++++++++++++++++++++++++++++++++++++++++++++++++++++++++++++++++++++++++++++++++++++++++++++++++++++++++++++++++++++++++++++++++++++++++++++++++++++++++++++++++++++++++++++++++++++++++++++++++++++++++++++++++++++++++++++++++++++++++++++++++++++++++-----",
"---+++++++++++++++++++++++++++++++++++++++++++++++++++++++++++++++++++++++++++++++++++++++++++++++++++++++++++++++++++++++++++++++++++++++++++++++++++++++++++++++++++++++++++++++++++++++++++++++++++++++++++++++++++++++++++++++++++++++++++++++++++++++++++++++++++++++++++++++++++-.",
"-+++++++#########################################################################################################################################################################################################################################################################++++++-",
".#+++###++++++++++++++++++++++++++++++++++++++++++++++++++++++++++++++++++++++++++++++++++++++++++++++++++++++++++++++++++++++++++++++++++++++++++++++++++++++++++++++++++++++++++++++++++++++++++++++++++++++++++++++++++++++++++++++++++++++++++++++++++++++++++++++++++++++++###++++#",
"#+++##+.--------------------------------------------------.------------------------------------------------------------------------------------------------------------------------------.--------------------.-----------------------------------------------------------------.+##++++",
"#+++##.---------------------------------------------------++------------------------------------------------------------------------------------------++--------------------------------+##-.----------------.++-------------------+#---------------+----------------------------.+##+++",
"#+++##.-----+#######################++-------------------+##+#+.-++------------------------+++########+++---------------------------------------------####+.+##------------------------+###+#+.++-----------.+####+--++------------+###+--+#------.##################.-----------.+##+++",
"#+++##.-----+##                     ####+--------------.+######++###.-------------------+####+##############+-----------------------------------------######+###+.-------------------+## ####+###.---------.+######+-##+-----------+#####++##+----.##              ##+++---------.+##+++",
"#+++##.-----+## ##########################+-----------.+## +#.#######.---------------+###  ####-...........#####+-------------------------------------## #########+.--------------.+##   ########.---------+## ##.######+----------+#  ########+--.## ##################---------.+##+++",
"#+++##.-----+## ##......................####+.-------.+## ##...#######-------------+##  -##+...................###+-----------------------------------## ##..#######+.-----------+###  ##..######.--------+## ##...######+.--------+#  #..#######-.## -#..............##++++-----.+##+++",
"#+++##.-----+## ##.........................###+------+## +#-....#######---------.+##  ###.........................##+.--------------------------------## ##...+#######----------###  ###...######.-------+## ##.....#######.-------+#  #-..+######++# -#..............######.----.+##+++",
"#+++##.-----+## ##...........................##+----+## -#+......#######-------.+##  ##............................###--------------------------------## ##.....#######+.----.+##  ###.....######.------+## ##.......######+-------+#  #-....######## .#..............######.----.+##+++",
"#+++##.-----+## ##............................###-.+## -##........#######------+##  ##........................###...-##+------------------------------## ##.......#######+-.+##  .##.......######.----.+## ##.........######+------+#  #-......######+##..............######.----.+##+++",
"#+++##.-----+## ##.............................###+## -##..........#######----+##  ##.....................####...-####-.--+##################+--------## ##.........##########  ##.........######.---.+## .#-..........######+-----+#  #-.......+#######..............######.----.+##+++",
"#+++##.-----+## ##..............###............#####  ##............#######.--##  ##...................####...#########+-.+#               .#+.-------## ##..........######## ##+..........######.---+## .#-............######+----+#  #-.........######..............######.----.+##+++",
"#+++##.-----+## ##..............###........##..####  ##..............#######.+## ##.................###....##########+---.+#  ##################+-----## ##............########............######.--+##  ##..............######+.--+#  #-...........####..............######.----.+##+++",
"#+++##.-----+## ##....................##...##..#######................#######+#  ##....................+##########+------.+#  ##..............##+..---## ##..............####..............######.-+##  ##................######+.-+#  #-............+##..............######.----.+##+++",
"#+++##.-----+## ##.................####...##+.+######..................########  ##.................##########++.--------.+#. ##..............#####+--## ##................................######.+##  ##..................######+.+#  #-..............#..............######.----.+##+++",
"#+++##.-----+## ##..............####....###...######........####........#######  ##................#############+..-------+#####..............#####+--## ##................................#####+.##  ##........####........######++#  #-.............................######.----.+##+++",
"#+++##.-----+## ##..........#############...#######........######........######+ ##....................####.   +####+-------.+##..............#####+--## ##................................#####+##  ##........#####-........########  #-.............................######.----.+##+++",
"#+++##.-----+## ##..........##............########..........####..##......######.##.................###....+####   ##+-------+#####################+--## ##................................#######  ##..........###+..##......#######  #-.............................######.----.+##+++",
"#+++##.-----+## ##..........##..#################................##+.......#########..................#####....-####+-.--------.-##################+--## ##................................######  ##................##........######  #-.............................######.----.+##+++",
"#+++##.-----+## ##..........##..################..............####......##..########......................#####....-####+--------+++++++++++++++++++--## ##............................##..#####  ##.............+####......##..########-.........................##..######.----.+##+++",
"#+++##.-----+## ##..........##..###########+ ##..........................##..########..........................###...##+-.----------------------------## ##............................-#..########..........................##..#######-.........................##..######.----.+##+++",
"#+++##.-----+## ##..........##..#####+..+#. ##............................##..#########.......................###...######----------------------------## ##.............................#..#######............................##..######-.........................##..######.----.+##+++",
"#+++##.-----+#- ##....----.-##..#####+.+#  ##.......................#########..#########-..................####...#######-----------------------------## ##.....................#########..######.......................########+..#####-..................#########..######.----.+##+++",
"#+++##.-----+#####....#####+#...#####++#####....................................###########.........+######.....#######+.-----------------------------#####................................#####....................................####..............................######.----.+##+++",
"#+++##.-------.-##.............-#####+..+##......................................#############...............#########-.------------------------------..+##................................####.....................................+####.............................######.----.+##+++",
"#+++##.---------#####################+--+###########################################################################+-----------------------------------+###################################################################################################################.----.+##+++",
"#+++##.-----------.##################+-----.##############################################--++###################++----------------------------------------.+###############################################################################################################.----.+##+++",
"#+++##-------------++++++++++++++++++------++++++++++++++++++++++++++++++++++++++++++++++++-----+++##########++-.--------------------------------------------+++++++++++++++++++++++++++++++++++++++++++++++++++++++++++++++++++++++++++++++++++++++++++++++++++++++++++++++-----.+#++++",
"#+++###-.---------....................----..................................................---.................--------------------------------------------.................................................................................................................---.+##++++",
"-#++++###++++++++++++++++++++++++++++++++++++++++++++++++++++++++++++++++++++++++++++++++++++++++++++++++++++++++++++++++++++++++++++++++++++++++++++++++++++++++++++++++++++++++++++++++++++++++++++++++++++++++++++++++++++++++++++++++++++++++++++++++++++++++++++++++++++++####++++#",
"--+++++++#######################################################################################################################################################################################################################################################################+++++++.",
"---++++++++++++++++++++++++++++++++++++++++++++++++++++++++++++++++++++++++++++++++++++++++++++++++++++++++++++++++++++++++++++++++++++++++++++++++++++++++++++++++++++++++++++++++++++++++++++++++++++++++++++++++++++++++++++++++++++++++++++++++++++++++++++++++++++++++++++++++++--.",
"------+++++++++++++++++++++++++++++++++++++++++++++++++++++++++++++++++++++++++++++++++++++++++++++++++++++++++++++++++++++++++++++++++++++++++++++++++++++++++++++++++++++++++++++++++++++++++++++++++++++++++++++++++++++++++++++++++++++++++++++++++++++++++++++++++++++++++++#+.----",
"----------------------------------------------------------------------------------------------------------------------------------------------------------------------------------------------------------------------------------------------------------------------------------------",
"----------------------------------------------------------------------------------------------------------------------------------------------------------------------------------------------------------------------------------------------------------------------------------------",
"------------------------------------------------------------------------------------------+#########++-----##########+---+####+---####+---##########+---+#+----------##+------+#######+-----##########+---------------------------------------------------------------------------------",
"------------------------------------------------------------------------------------------+####+++#####----####++++++----+####+---####+---####++++++----+###+.-------##+----#####++++###+---####++++++----------------------------------------------------------------------------------",
"------------------------------------------------------------------------------------------+####-.-.####+---####+.--------+####+---####+---####+.--------+#####+.-----##+---+####+.----##+---####+.--------------------------------------------------------------------------------------",
".-----------------------------------------------------------------------------------------+####+--.####+---####+---------+####+---####+---####+---------+#######+----##+---+####+-----------####+---------------------------------------------------------------------------------------",
"-+----------------------------------------------------------------------------------------+####---+####----####+.--------+####+---####+---####+.--------+#########+--##+---+####+-----------####+.--------------------------------------------------------------------------------------",
"+-----------------------------------------------------------------------------------------+##########++----#########-----+####+---####+---#########-----+##+########+##+---+####++######+---#########-----------------------------------------------------------------------------------",
".-----------------------------------------------------------------------------------------+####---+####+---####+.--------+####+---####+---####+.--------+##--+#########+---+####+--.####+---####+.--------------------------------------------------------------------------------------",
"------------------------------------------------------------------------------------------+####+--.####+---####+---------+####+---####+---####+---------+##----+#######+---+####+---####+---####+---------------------------------------------------------------------------------------",
"------------------------------------------------------------------------------------------+####+---####+---####+---------+####+--.####----####+---------+##-------#####+---+####+--.####+---####+---------------------------------------------------------------------------------------",
"------------------------------------------------------------------------------------------+####+---####+---####+.--------+####-.-###+-----####+.--------+##--------+###+----#####+-+####+---####+.--------------------------------------------------------------------------------------",
"------------------------------------------------------------------------------------------+####+---####+---###########---+#######+--------###########---+##----------+#+------+######++-----###########---------------------------------------------------------------------------------",
"----------------------------------------------------------------------------------------------------------------------------------------------------------------------------------------------------------------------------------------------------------------------------------------",
".--------------------------------------------------------------------------------------------------------------------------------------------------------------------------------------------------------------------------------------------------------------------------------------."
};
