/* XPM */
static char *Pacman_Chomping_Down[] = {
/* columns rows colors chars-per-pixel */
"160 40 3 1 ",
"  c #FBF236",
". c #000000",
"# c None",
/* pixels */
"...............          ..............................          ..............................          ..............................          ...............",
"............                ........................                ........................                ........................                ............",
"..........                    ....................                    ....................                    ....................                    ..........",
".........                      ..................                      ..................                      ..................                      .........",
".......                          ..............                          ..............                          ..............                          .......",
"......                            ............                            ............                            ............                            ......",
".....                              ..........                              ..........                              ..........                              .....",
"....                                ........                                ........                                ........                                ....",
"....                                ........                                ........                                ........                                ....",
"...                                  ......                                  ......                                  ......                                  ...",
"..                                    ....                                    ....                                    ....                                    ..",
"..                                    ....                                    ....                                    ....                                    ..",
".                                      ..                                      ..                                      ..                                      .",
".                                      ..                                      ..                                      ..                                      .",
".                                      ..                                      ..                                      ..                                      .",
"                                                                                                                                                                ",
"                                                                                                                                                                ",
"                                                                                                                                                                ",
"                                                                                                                                                                ",
"                                                                                                                                                                ",
"                                                                                                                                                                ",
"                                                                                                   ##                                                           ",
"                                                          ##                                      ####                                    ##                    ",
"                                                          ##                                     ######                                   ##                    ",
"                                                          ##                                    ########                                  ##                    ",
".                                      .#                 ###                  ##              ##########              ##                 ###                  #",
".                                      .#                ####                  ##             ############             ##                ####                  #",
".                                      .#                ####                  ##            ##############            ##                ####                  #",
"..                                    ..##               #####                ####          ################          ####               #####                ##",
"..                                    ..##               #####                ####         ##################         ####               #####                ##",
"...                                  ...###             ######               ######       ####################       ######             ######               ###",
"....                                ....####            ######              ########     ######################     ########            ######              ####",
"....                                ....####            #######             ########    ########################    ########            #######             ####",
".....                              .....#####           #######            ##########  ##########################  ##########           #######            #####",
"......                            ......######         ########           ########### ############################ ###########         ########           ######",
".......                          .......#######        #########         ######################################################        #########         #######",
".........                      .........#########      #########       ##########################################################      #########       #########",
"..........                    ..........##########     #########      ############################################################     #########      ##########",
"............                ............############  ###########   ################################################################  ###########   ############",
"...............          ...............######################### ############################################################################### ##############"
};
