/* XPM */
static char *Pacman_Chomping_Right[] = {
/* columns rows colors chars-per-pixel */
"80 20 2 2 ",
"  c #FBF236",
". c None",
/* pixels */
"...............          ..............................          ..............................          ..............................          ...............",
"..........                    ....................                    ....................                    ....................                    ..........",
".......                          ..............                          ..............                          ..............                          .......",
".....                              ..........                              ..........                             ...........                              .....",
"....                                ........                                ........                            ............                                ....",
"..                                    ....                                    ....                            ............                                    ..",
".                                      ..                                      ..                           .............                                      .",
".                                      ..                                       .                         ...............                                       ",
"                                                                           .....                        ................                                   .....",
"                                                                    ............                      ..................                            ............",
"                                                              ..................                     ...................                      ..................",
"                                                                  ..............                       .................                          ..............",
"                                                                          ......                         ...............                                  ......",
".                                      ..                                      ..                          ..............                                      .",
"..                                    ....                                    ....                           .............                                    ..",
"...                                  ......                                  ......                            ............                                  ...",
"....                                ........                                ........                             ...........                                ....",
"......                            ............                            ............                             ...........                            ......",
".........                      ..................                      ..................                      ..................                      .........",
"............                ........................                ........................                ........................                ............",
};
