/* XPM */
static char *pacman[] = {
/* columns rows colors chars-per-pixel */
"187 23 5 1 ",
"# c None",
"  c None",
"- c #DF9751",
"+ c #FF0202",
". c #DFE0E0",
/* pixels */ 
"                                                                                                                                                            ######                         ",
"                                                                                                                                                            #+--###############            ",
"                                                                                           ++++++++                                                         ####+++++++++++++###           ",
"                           ------                   -...#                                 ---------##                ----------  ---+                        ###+++++---+++++###           ",
"                      ----------##          ---------..-+-------+                      ---------+####                 +#+------+----+#+++++                    ######---########           ",
"                      ----------##          ---------...--------##                     ---------#####                  ##-----------++++++##                ######+--...--+######          ",
"                ------+##--+######       +++++++++---------..+++##               +------##+--+##+--+                 ++++++++++--++++++++++++#              ##++++---------++++###         ",
"              ---+######---+#         +++---+++---+++---++---+++##+#           ---------+-----+----++-+            ++++++---+++++++++++++++++##+         ####+-----------------+#####      ",
"    ++++++++----+#####+---+##         +++...+++..-+++--++++++++++++##         ------------------------##           ++++++...++++++++++++++++++++#        ##-----...---------------###      ",
"    ++++++++---###    ---####         ++++++++++++++++++..-++-..+++##       ------------------------------         +++...+++++++++++++++++++++++##     ####-------------..--------####     ",
" +++++++++--++++++ ---+###            +++++++-+++++-++++--+++---+++##       -----------------------------##        +++...+++++++++++++++++++++++##     #+--..-----------------------+###   ",
" +++++++++++++####++--+#++++          ++++++...+++..-++++++++++++++##       -----------------------------##        +++...+++++++++++++++++++++++##     #+--..------------------------###   ",
" +++++++++++######++--+++++##+         ###++++++++++++++++-..+++#####       -----------------------------##        +++++++++++++++++++++++++++++##     #+----------..--------..------###   ",
" +++...++++####+++++--+++++++##          +++++++++++++++++---+++##          -----------------------------##        +++++++++++++++++++++++++++++##     #+--..------------------------###   ",
" ++++++..-+## +++++++++++++++##          +++...+++..-+++++++++++##          -----------------------------##        +++++++++++++++++++++++++++++##     ####--------..---..--------######   ",
" +###++++++## +++---+++++++++##           ##++++++++++++..-++#####           ##-----------------------#####         ##+++++++++++++++++++++++#####      ###--------..---..--------######   ",
"  ###++++++## +++..-+++++++++##             ++++++++++++..+++##               +-----------------------####          ##+++++++++++++++++++++++####        ##-----------------------###      ",
"     ######## +++++-..+++++++##              ##+++..-+++++#####               ------------------------##             ++++++++++++++++++++++++##          ####+-----------------######      ",
"               ###+++++++++####                ###+++++#####                   +#####-----------+#######              ###+++++#######+++++#####             ######+-------########         ",
"                 ############                    ++++++##                           #-----------+#                     ##+++++######++++++####               ######+++++++########         ",
"                  ##########                       ######                             ############                        ######     #######                     #############             ",
"                                                                                                                                                                                           ",
"                                                                                                                                                                                           "
};
