/* XPM */
static char *txt-gameover[] = {
/* columns rows colors chars-per-pixel */
"160 45 2 1 ",
"  c None",
"# c #FFFFFF",
/* pixels */
"                                                                                                                                                                ",
"             #########################              ###############               #########                #########     ##############################         ",
"             #########################              ###############               #########                #########     ##############################         ",
"        ##########                                  #####     #####               #############        #############     ##########                             ",
"        ##########                             ##########     ##########          ##############      ##############     ##########                             ",
"        ##########                             ##########     ##########          ##############      ##############     ##########                             ",
"   ##########                             ##########               ##########     ##################################     ##########                             ",
"   ##########                             ##########               ##########     ##################################     ##########                             ",
"   ##########                             ##########               ##########     ##################################     ##########                             ",
"   ##########          ###############    ##########               ##########     ##################################     #########################              ",
"   ##########          ###############    ##########               ##########     ##################################     #########################              ",
"   ##########               ##########    ##########               ##########     ##########    ######    ##########     #########################              ",
"   ##########               ##########    ###################################     #########      ####      #########     ##########                             ",
"   ##########               ##########    ###################################     #########      ####      #########     ##########                             ",
"        ##########          ##########    ##########               ##########     #########                #########     ##########                             ",
"        ##########          ##########    ##########               ##########     #########                #########     ##########                             ",
"        ##########          ##########    ##########               ##########     #########                #########     ##########                             ",
"             #########################    ##########               ##########     #########                #########     ##############################         ",
"             #########################    ##########               ##########     #########                #########     ##############################         ",
"                                                                                                                                                                ",
"                                                                                                                                                                ",
"                                                                                                                                                                ",
"                                                                                                                                                                ",
"                                                                                                                                                                ",
"                                                                                                                                                                ",
"                                                                                                                                                                ",
"        #########################          ##########               ##########     ##############################     ##############################            ",
"        #########################          ##########               ##########     ##############################     ##############################            ",
"   ##########                #########     ##########               ##########     ##########                         ##########               ##########       ",
"   ##########               ##########     ##########               ##########     ##########                         ##########               ##########       ",
"   ##########               ##########     ##########               ##########     ##########                         ##########               ##########       ",
"   ##########               ##########     ##########               ##########     ##########                         ##########               ##########       ",
"   ##########               ##########     ##########               ##########     ##########                         ##########               ##########       ",
"   ##########               ##########     ##########               ##########     #########################          ##########               ##########       ",
"   ##########               ##########     ###############     ###############     #########################          ##########          ###############       ",
"   ##########               ##########     ###############     ###############     #########################          ##########          ###############       ",
"   ##########               ##########          ##########     ##########          ##########                         ##########          #####                 ",
"   ##########               ##########          #########################          ##########                         #########################                 ",
"   ##########               ##########          #########################          ##########                         #########################                 ",
"   ##########               ##########               ###############               ##########                         ##########     ###############            ",
"   ##########                #########               ###############               ##########                         ##########     ###############            ",
"        #####               ######                   ###############               ##########                         ##########     ###############            ",
"        #########################                         #####                    ##############################     ##########          ###############       ",
"        #########################                         #####                    ##############################     ##########          ###############       ",
"                                                                                                                                                                ",
};
