/* XPM */
static char *txt-numbers[] = {
/* columns rows colors chars-per-pixel */
"200 10 2 1 ",
"  c None",
"# c #FFFFFF",
/* pixels */                                                                                                                                                                                                        
"                                                                                                                                                                                                        "
"       #######                ####          #############       ##############           #######     ###############          #########      ##################     #########           ###########     "
"      #     ###              #####          ###       ###               ####            ########     #####                   ###             #####        #####    ###       ###       ###       ###    "
"     ##       ###           ######        ####        #####             ###           ###  #####     #####                 ###               #####        ####   #####        ##     ####        #####  "
"   ####        ####           ####                  #######          ####           ####   #####     ###############     ####                          #####     ########     ##     ####        #####  "
"   ####        ####           ####             ##########          #########     #####     #####                  ####   ##############              #####          #########           ##############  "
"   ####        ####           ####             #######                    ###    #################                ####   ####        ###           ####           ##     #########               #####  "
"     ##        ###            ####          #####                         ####             #####                  ####   ####        #####        #####          ###         #####               ###    "
"     #####     ##             ####        #######             ####        ####             #####     #####        ####   ####        #####        #####          ###          ####             ####     "
"        #######         ###############   #################     ############               #####        ############       ############           #####             ############       ##########       "
