/* XPM */
static char *instructions[] = {
/* columns rows colors chars-per-pixel */
"253 70 2 1 ",
"  c None",
"# c #FFFFFF",
/* pixels */
"                                                                                                                                                                                                                                                             ",
"                                                                                                                                                                                                                                                             ",
"                                          ###########         #######          ##########                           ########         ###    ####         #######           #########       ###########         #########                                     ",
"                                          ###########       ###########        ##########                          #########         ###    ####       ###########       ###########       ###########       ###########                                     ",
"                                          ####              ####    ###           ####                             ###               ###    ####       ###    ####       ###                   ###           ####                                            ",
"                                          #########         ####    ###           ####                             ###  ######       ###########       ###    ####       #########             ###           #########                                       ",
"                                          #########         ###########           ####                             ###    ####       ###    ####       ###    ####         #########           ###             #########                                     ",
"                                          ####              ###########           ####                             ###    ####       ###    ####       ###    ####              ####           ###                  ####                                     ",
"                                          ###########       ####    ###           ####                             ###########       ###    ####       ###########       #########             ###           #########                                       ",
"                                          ###########       ####    ###           ####                               #######         ###    ####         #######         #########             ###           #########                                       ",
"                                                                                                                                                                                                                                                             ",
"                                                                                                                                                                                                                                                             ",
"                                                                                                                                                                                                                                                             ",
"                                                                                                                                                                                                                                                             ",
"                                                                                                                                                                                                                                                             ",
"                                                                                                                                                                                                                                                             ",
"      #########         ###########       ###########         #######          #########         ###########                         #########         ###########         #########         #########       ###########       #########         ########### ",
"      ###########       ###########       ###########       ###########        ##########        ###########                         #########         ###########       ###########       ###########       ###########       ###########       ########### ",
"      ####    ###       ####              ####              ####    ###        ###    ###        ###                                 ###    ####       ###               ###               ####              ####              ####    ###           ###     ",
"      #########         #########         #########         ####    ###        ##########        #########                           ###    ####       #########         #########         #########         #########         ###########           ###     ",
"      ###########       #########         #########         ####    ###        ########          #########                           ###    ####       #########           #########         #########       #########         ####  ###             ###     ",
"      ####   ####       ####              ####              ####    ###        ###    ###        ###                                 ###    ####       ###                      ####              ####       ####              ####   ####           ###     ",
"      #########         ###########       ####              ###########        ###    ###        ###########                         #########         ###########       #########         #########         ###########       ####   ####           ###     ",
"      #########         ###########       ####                #######          ###    ###        ###########                         #########         ###########       #########         #########         ###########       ####   ####           ###     ",
"                                                                                                                                                                                                                                                             ",
"                                                                                                                                                                                                                                                             ",
"                                                                                                                                                                                                                                                             ",
"                                                                                                                                                                                                                                                             ",
"                                                                                                                                                                                                                                                             ",
"                                                                                                                                                                                                                                                             ",
"                                            #######        ####     ####         #######             ####          #########                           ###########           ####          #########         ###########                                     ",
"                                          ###########      ####     ####       ###########           ####          #########                           ###########           ####          ##########        ###########                                     ",
"                                          ####    ###       ####   ####        ###    ####           ####          ###    ####                         ####                  ####          ###    ###        ###                                             ",
"                                          ####    ###       ####   ####        ###    ####           ####          ###    ####                         #########             ####          ##########        #########                                       ",
"                                          ###########        ###   ###         ###    ####           ####          ###    ####                         #########             ####          ########          #########                                       ",
"                                          ###########        ###   ###         ###    ####           ####          ###    ####                         ####                  ####          ###    ###        ###                                             ",
"                                          ####    ###         ### ###          ###########           ####          #########                           ####                  ####          ###    ###        ###########                                     ",
"                                          ####    ###          #####             #######             ####          #########                           ####                  ####          ###    ###        ###########                                     ",
"                                                                                                                                                                                                                                                             ",
"                                                                                                                                                                                                                                                             ",
"                                                                                                                                                                                                                                                             ",
"                                                                                                                                                                                                                                                             ",
"                                                                                                                                                                                                                                                             ",
"                                                                                                                                                                                                                                                             ",
"                                                                                                                                                                                                                                                             ",
"                                                                                                                                                                                                                                                             ",
"                                                                                                                                                                                                                                                             ",
"                                          ####   ####         #########        ##########                            #######         #########         #########           #######        ####     ####        #########                                     ",
"                                          ####   ####       ###########        ##########                          ###########       ###########       ###########       ###########      ####     ####      ###########                                     ",
"                                          ####   ####       ####               ###                                 ###    ####       ###    ####       ###    ####       ####   ####      #### ### ####      ####                                            ",
"                                          ####   ####       #########          ########                            ###    ####       ##########        ##########        ####   ####      #############      #########                                       ",
"                                          ####   ####          ########        ########                            ###########       ########          ########          ####   ####      #############        #########                                     ",
"                                          ####   ####               ###        ###                                 ###########       ###    ####       ###    ####       ####   ####      ###### ######              ###                                     ",
"                                          ###########       ###########        ##########                          ###    ####       ###    ####       ####   ####        ########        ####     ####      #########                                       ",
"                                           #########        #########          ##########                          ###    ####       ###    ####       ####   ####         #######        ###       ###      #########                                       ",
"                                                                                                                                                                                                                                                             ",
"                                                                                                                                                                                                                                                             ",
"                                                                                                                                                                                                                                                             ",
"                                                                                                                                                                                                                                                             ",
"                                                                                                                                                                                                                                                             ",
"                                                                                                                                                                                                                                                             ",
"                                          ###########         #########         ########                                             ###########         #######                           ###########       ####   ####           ####          ########### ",
"                                ##        ###########       ###########        ##########         ##                                 ###########       ###########                         ###########       ####   ####           ####          ########### ",
"                              ##          ####              ####               ###    ###           ##                                  ####           ###    ####                         ###               ###########           ####              ###     ",
"                            ##            #########         #########          ###                    ##                                ####           ###    ####                         #########           #######             ####              ###     ",
"                           ##             #########            ########        ###                     ##                               ####           ###    ####                         #########           #######             ####              ###     ",
"                            ##            ####                      ###        ###    ###             ##                                ####           ###    ####                         ###               ####   ####           ####              ###     ",
"                              ##          ###########       ###########        ##########           ##                                  ####           ###########                         ###########       ####   ####           ####              ###     ",
"                                ##        ###########       #########            ######           ##                                    ####             #######                           ###########       ####   ####           ####              ###     ",
"                                                                                                                                                                                                                                                             "
};
