/* XPM */
static char *txt-moves[] = {
/* columns rows colors chars-per-pixel */
"100 11 2 1 ",
"  c None",
"# c #FFFFFF",
/* pixels */"                                                                                                    "
" #####        #####      ############      #####        #####   ###############    ###########      "
" #######     ######     ###        ###     #####        #####   #####              ###########      "
" ########   #######   #####        #####   #####        #####   #####            #####     #####    "
" ##################   #####        #####   #####        #####   #####            #####              "
" ##################   #####        #####   ######     #######   ############       ###              "
" ##################   #####        #####   #######   ########   ############       #############    "
" #####   ###  #####   #####        #####     #############      #####                         ##### "
" #####        #####   #####        #####        #######         #####            #####        ##### "
" #####        #####     ###        ###          #######         #####            #####        ##### "
" #####        #####      ############             ###           ###############    #############    "
"                                                                                                    "
