/* XPM */
static char *wall20-rg[] = {
/* columns rows colors chars-per-pixel */
"40 40 2 1 ",
". c #2B1DFF",
"  c None",
/* pixels */
"                                ........",
"                                ........",
"                                ........",
"                                ........",
"                                ........",
"                                ........",
"                                ........",
"                                ........",
"                                ........",
"                                ........",
"                                ........",
"                                ........",
"                                ........",
"                                ........",
"                                ........",
"                                ........",
"                                ........",
"                                ........",
"                                ........",
"                                ........",
"                                ........",
"                                ........",
"                                ........",
"                                ........",
"                                ........",
"                                ........",
"                                ........",
"                                ........",
"                                ........",
"                                ........",
"                                ........",
"                                ........",
"                                ........",
"                                ........",
"                                ........",
"                                ........",
"                                ........",
"                                ........",
"                                ........",
"                                ........",
};
