/* XPM */
static char *wall20-lf[] = {
/* columns rows colors chars-per-pixel */
"44 44 2 1 ",
". c #2B1DFF",
"  c None",
/* pixels */
"........                                    ",
"........                                    ",
"........                                    ",
"........                                    ",
"........                                    ",
"........                                    ",
"........                                    ",
"........                                    ",
"........                                    ",
"........                                    ",
"........                                    ",
"........                                    ",
"........                                    ",
"........                                    ",
"........                                    ",
"........                                    ",
"........                                    ",
"........                                    ",
"........                                    ",
"........                                    ",
"........                                    ",
"........                                    ",
"........                                    ",
"........                                    ",
"........                                    ",
"........                                    ",
"........                                    ",
"........                                    ",
"........                                    ",
"........                                    ",
"........                                    ",
"........                                    ",
"........                                    ",
"........                                    ",
"........                                    ",
"........                                    ",
"........                                    ",
"........                                    ",
"........                                    ",
"........                                    ",
"........                                    ",
"........                                    ",
"........                                    ",
"........                                    ",
};
