/* XPM */
static char *Pacman_Death[] = {
/* columns rows colors chars-per-pixel */
"220 20 2 2 ",
"  c #FBF236",
". c None",
/* pixels */
"...............          ............................. ........... .....................................................................................................................................................................................................................................................................................................................................................................................",
"............                ........................   ...........  ....................................................................................................................................................................................................................................................................................................................................................................................",
"..........                    ....................      .........     ..................................................................................................................................................................................................................................................................................................................................................................................",
".........                      ..................       .........      .................................................................................................................................................................................................................................................................................................................................................................................",
".......                          ..............         .........        ...............................................................................................................................................................................................................................................................................................................................................................................",
"......                            ............           ........         ........... ............................ .....................................................................................................................................................................................................................................................................................................................................",
".....                              ..........            .......           ..........  ..........................  .....................................................................................................................................................................................................................................................................................................................................",
"....                                ........             .......            ........    ........................    ....................................................................................................................................................................................................................................................................................................................................",
"....                                ........              ......            ........     ......................     ....................................................................................................................................................................................................................................................................................................................................",
"...                                  ......               ......             ......       ....................       ...................................................................................................................................................................................................................................................................................................................................",
"..                                    ....                .....               ....         ..................         ..................................................................................................................................................................................................................................................................................................................................",
"..                                    ....                .....               ....          ................          ..................................................................................................................................................................................................................................................................................................................................",
".                                      ..                  ....                ..            ..............            .................................................................................................................................................................................................................................................................................................................................",
".                                      ..                  ....                ..             ............             .................................................................................................................................................................................................................................................................................................................................",
".                                      ..                  ...                 ..              ..........              .................................................................................................................................................................................................................................................................................................................................",
"                                                            ..                                  ........                  ...................................   ........................................................................................................................................................................................................................................................................................",
"                                                            ..                                   ......                        .........................        ........................................................................................................................................................................................................................  ....  ........................................................",
"                                                            ..                                    ....                              ................            .................................................................................................................................................................................  ..  .................................  ....  ........................................................",
"                                                                                                   ..                                    ......                 .................................................................................................................................................................................  ..  .................................................................................................",
"                                                                                                                                                                ..................    .....................................  ......................................  ......................................  ...........................................................................................................................................",
"                                                                                                                                                                ..............            ................................    .....................................  ......................................  ...........................................................................................................................................",
"                                                                                                                                                                ..........                    ...........................      ...................................    ...........................................................................  ..  .................................................................................................",
"                                                                                                                                                                ......                            ......................        ..................................    ...........................................................................  ..  .................................  ....  ........................................................",
"                                                                                                                                                                ..                                    .................          .................................    ..................................................................................................................  ....  ........................................................",
"                                                                                                                                                                                                        ..............            ................................    ..................................................................................................................................................................................",
".                                      ..                                      ..                                      ..                                      ..                                      ..............              ..............................      .................................................................................................................................................................................",
".                                      ..                                      ..                                      ..                                      ..                                      .............                .............................      .................................................................................................................................................................................",
".                                      ..                                      ..                                      ..                                      ..                                      ............                  ............................      .................................................................................................................................................................................",
"..                                    ....                                    ....                                    ....                                    ....                                    ............                    ...........................      .................................................................................................................................................................................",
"..                                    ....                                    ....                                    ....                                    ....                                    ...........                      .........................        ................................................................................................................................................................................",
"...                                  ......                                  ......                                  ......                                  ......                                  ...........                        ........................        ................................................................................................................................................................................",
"....                                ........                                ........                                ........                                ........                                ...........                          .......................        ................................................................................................................................................................................",
"....                                ........                                ........                                ........                                ........                                ..........                            ......................        ................................................................................................................................................................................",
".....                              ..........                              ..........                              ..........                              ..........                              ..........                              ....................          ...............................................................................................................................................................................",
"......                            ............                            ............                            ............                            ............                            ............                            .....................          ...............................................................................................................................................................................",
".......                          ..............                          ..............                          ..............                          ..............                          ..............                          ......................          ...............................................................................................................................................................................",
".........                      ..................                      ..................                      ..................                      ..................                      ..................                      ........................          ...............................................................................................................................................................................",
"..........                    ....................                    ....................                    ....................                    ....................                    ....................                    ........................            ..............................................................................................................................................................................",
"............                ........................                ........................                ........................                ........................                ........................                ..........................            ..............................................................................................................................................................................",
"...............          ..............................          ..............................          ..............................          ..............................          ..............................          ..............................          ..............................................................................................................................................................................."
};
