/* XPM */
static char *pacman[] = {
/* columns rows colors chars-per-pixel */
"20 20 2 2 ",
"  c #FBF236",
". c #000000",
/* pixels */
"...............          ...............",
"............                ............",
"..........                    ..........",
".........                      .........",
".......                          .......",
"......                            ......",
".....                              .....",
"....                                ....",
"....                                ....",
"...                                  ...",
"..                                    ..",
"..                                    ..",
".                                      .",
".                                      .",
".                                      .",
"                                        ",
"                                        ",
"                                        ",
"                                        ",
"                                        ",
"                                        ",
"                                        ",
"                                        ",
"                                        ",
"                                        ",
".                                      .",
".                                      .",
".                                      .",
"..                                    ..",
"..                                    ..",
"...                                  ...",
"....                                ....",
"....                                ....",
".....                              .....",
"......                            ......",
".......                          .......",
".........                      .........",
"..........                    ..........",
"............                ............",
"...............          ..............."
};
